<?xml version="1.0" encoding="utf-8"?>
<!-- Generator: Adobe Illustrator 19.1.0, SVG Export Plug-In . SVG Version: 6.00 Build 0)  -->
<svg version="1.1" id="Layer_1" xmlns="http://www.w3.org/2000/svg" xmlns:xlink="http://www.w3.org/1999/xlink" x="0px" y="0px"
	 viewBox="0 0 482.9 105" style="enable-background:new 0 0 482.9 105;" xml:space="preserve">
<style type="text/css">
	.st0{fill:#FF8200;}
	.st1{fill:#0085CA;}
	.st2{fill:#004B87;}
</style>
<g>
	<g>
		<polygon class="st0" points="53.7,44.9 107.4,52.5 53.7,60.1 0,52.5 		"/>
		<path class="st1" d="M53.7,70L107.4,59L53.7,82.6L0,59L53.7,70z M107.4,46L53.7,22.5L0,46L53.7,35L107.4,46z"/>
		<path class="st2" d="M53.7,93.2l53.7-27.7L53.7,105L0,65.4L53.7,93.2z M107.4,39.6L53.7,0L0,39.6l53.7-27.7L107.4,39.6z"/>
	</g>
	<path class="st2" d="M272.3,68.9c0,5.1-2.4,8.3-4.7,10.3c-2.2,2-6.1,4.2-14,4.2c-7.9,0-15.3-4.3-18.2-7.5l5.6-7
		c3.2,3.4,9.1,5.8,13.1,5.8c3.9,0,7-1,7-4.1c0-3.1-4.6-4.2-7-4.9c-2.4-0.8-4.7-1.4-7-2.3c-2.3-0.9-9.4-3.5-9.4-11.9
		c0-8.4,7.1-13.7,17.6-13.7c10.4,0,16.7,5.9,16.7,5.9l-4.4,7.2c-3.6-2.9-8.3-4.7-12.1-4.7c-3.7,0-6.8,0.9-6.8,3.9
		c0,3,3.5,3.8,6.8,4.9c3.3,1,7,2.2,8.3,2.8C265.2,58.2,272.3,61,272.3,68.9z M291.2,27.2h-10.8h-0.1v11.4h-6.4v8.3h6.2v22
		c0,5.1,0.7,8.6,3.4,11.2c2.6,2.5,6,3.3,9.9,3.3c3.4,0,7.4-0.8,9.5-1.4l-1.1-8.1c-1.5,0.4-3.3,0.7-5.1,0.7c-1.9,0-3.4-0.9-4.1-2
		c-0.7-1.1-1.1-3.2-1.1-5.8V46.9h11.5v-8.3h-11.6V27.2z M422.1,73.7c-6.5,0-12.1-4-12.1-13.3c0-9.3,5.7-13.3,12-13.3
		c6.3,0,10.5,4.9,10.5,4.9l5.2-7c-0.6-0.8-5.7-7.2-16.9-7.2c-11.2,0-22,7.8-22,22.8c0,15,9.9,22.8,21.6,22.8c11.7,0,16.7-6,17.6-7
		l-5-7.5C432.9,68.9,428.6,73.7,422.1,73.7z M465.1,55.9L482,38.7h-13.4l-15.8,17.6V22.4h-11.4v60.2h11.4V68.8l4.8-4.7l12.2,18.4
		h13.1L465.1,55.9z M233,63.3h-30.1c0.3,7.5,5,11.5,12,11.5c7,0,12.1-3.6,13.1-4.5l3.9,6.9c0,0-5.8,6.2-18.5,6.2
		c-12.7,0-21.9-8.2-21.9-22.8c0-14.6,9.4-22.8,21.9-22.8c12.4,0,19.7,9.1,19.7,22V63.3z M222.1,55.8c0-5.6-2.8-10.3-9.3-10.3
		c-6.5,0-9.6,5.1-10.1,10.3H222.1z M395.7,60.6c0,14-9,22.8-22.2,22.8c-13.3,0-22.2-8.7-22.2-22.8c0-14.1,9-22.8,22.2-22.8
		C386.8,37.8,395.7,46.5,395.7,60.6z M384.1,60.6c0-8-3.6-14.2-10.6-14.2c-7,0-10.6,6.1-10.6,14.2c0,8,3.5,14.2,10.6,14.2
		C380.5,74.8,384.1,68.6,384.1,60.6z M159,49.8l18.1,33.6h0.9l17.6-60.9h-11.8l-10.6,34.3l-13.6-28.5h-0.9l-13.7,28.5l-10.6-34.3
		h-11.6l17.6,60.9h0.9L159,49.8z M352.6,82.6h-13.7l-18.7-23.1v23.1h-11.5V22.5h17.7c0,0,11.3-0.7,17.2,4c3.1,2.5,6.5,7.7,6.5,14.5
		c0,6.7-3.4,12-6.5,14.5c-2.6,2-6.1,3.2-10.1,3.7L352.6,82.6z M328.3,50.6c2.9,0,5-0.4,6.9-1.5c0.3-0.1,4.3-2.3,4.3-7.8
		c0-8.5-6.1-10-11.1-10h-8.2v19.3H328.3z"/>
</g>
</svg>
